<svg xmlns="http://www.w3.org/2000/svg" width="728" height="1024" viewBox="0 0 728 1024"><g fill="#123f78"><path d="M300.6 2.2c-7 2.7-17.5 12-23 20.2-12.8 19.2-21.4 43.9-29.1 82.6-12.3 62.5-11.1 58.4-18.2 59.5-11.2 1.6-37 9.1-53.3 15.5-8.9 3.5-28 13.6-37.1 19.5-7.9 5.2-8.8 5.5-14.5 5.5-7.2 0-18-2.1-42.7-8.5-32.8-8.4-54-10.4-66.2-6.3-3.5 1.1-4.4 2.1-7.4 8.3-1.9 3.8-4.7 11.2-6.3 16.4C0 224.2 0 224.7 0 249.7c0 23.9.2 26 2.5 35.4 3.1 12.3 4 14.5 12.7 33.7 7.8 17 8.5 20.2 6.9 29.4-1.7 10-4.1 40.2-4.1 51.9 0 15.8 2.7 47.3 5.5 64.4 5.5 33 11.1 55.4 22.6 89.8 5.3 15.9 7.2 23 7.9 30.2 3 28.9 7.4 45.2 18 67 14.3 29.3 30.9 48.5 66.5 76.6 9.9 7.8 21.8 17.5 26.5 21.4s15.1 12.2 23.3 18.4c8.7 6.7 14.7 11.9 14.7 12.9 0 .9-.9 3.1-1.9 4.8-7 11.6-23.3 56.3-27.1 74.5-6.4 31.1-8.4 54-8.4 100.4-.1 38.6-.1 39 2.1 43.2 3 5.5 11.2 9.5 24.3 11.9 10.7 2 46.6 2.3 59.9.5 13.3-1.7 19.5-6.6 22.9-18.2l1.6-5.6 17.5.4 17.5.4-.3 9.4c-.3 10.4 1.1 14.3 5.6 16.4 8 3.6 58.1 6.2 80.8 4.2 19.8-1.8 25.9-5.5 30.3-18.4l2-5.9 25.8.1c37.9.2 47.5-1.5 51.9-9 1.8-3.1 2-5.6 2.3-28.9.4-28.2-.7-46-4.3-71.5-2.2-15.4-8.7-47.4-10-49.5-1.3-2.2 2.4-1.9 13.7 1 14.8 3.8 35.1 5.1 48.8 3.1 12.3-1.8 25.5-6.4 34.8-12.2 9.9-6 13.2-10.3 13.2-17v-4.6l8.3-1.8c9.4-1.9 23.6-7.3 31-11.7 31-18.3 58.6-58.9 68.2-100.6 2.2-9.5 2-14.5-1-18-5.1-6.1-11.5-4.8-21.8 4.2-14.1 12.2-32.3 18.8-52.2 18.8-5.5 0-16.5-1-24.5-2.3-18.5-2.9-42.7-3.2-54-.6-29.6 6.7-61.7 23-90.3 45.9-7.6 6.2-9.9 7.5-10.3 6.3-.9-2.2.9-3.9 18.6-18.3 18.2-14.8 47-43.2 55.7-54.9 11.6-15.5 19-29.4 25-46.8 3.5-10.2 8.6-31 9.8-40 .4-2.8 3.3-12.9 6.5-22.5 13.9-41.5 21.1-71.6 27.4-114.3 5.3-35.2 5.9-71.5 1.6-95.7-1.1-6.3-2-14.3-2-17.7 0-5.7.5-7.2 6.6-18.8 7.5-14.4 12.3-27.7 15.6-42.7 3.2-15 3.2-43.1 0-56.7-2.3-9.6-7.4-23.7-10.1-28-5.4-8.5-30.9-7.8-69.1 1.9-21.2 5.4-22.4 5.7-31.6 7.5-13 2.4-19.1 2.1-24.4-1.6-24.8-16.7-55.5-29.3-89.1-36.4-6.7-1.4-12.6-2.8-13-3.1-2.2-1.4-4.1-7.3-5.4-17.6-4.2-32-12.8-63.7-27-99.8-7.2-18.2-14.4-30.4-21.2-35.8-11-8.6-22.1-11-32.7-7m15.2 28.6c7.1 7.7 17.6 33.7 25.2 62.7 1.6 6 4.7 18 7 26.5 2.2 8.5 4.3 16.3 4.6 17.2.5 1.6-.3 1.8-8.1 1.8-21.6 0-40.2-6.2-57.6-19.2-3.7-2.8-7.6-6.7-8.8-8.8-2-3.7-2.1-4-.5-10.1C284 75.3 292.8 49 299 37.2c6.3-12.2 10.2-13.7 16.8-6.4M276 140.6c7.9 5.6 23.2 13.2 33 16.3 12.1 3.8 21 5.1 35.3 5.1 12.9 0 12.9 0 15.2 7.6 1.9 6.6 6.5 34.9 7.2 45.1l.6 8.2-2.9.8c-4.4 1.2-27.9.8-35.9-.6-19.3-3.4-37-10.9-51.3-21.8-14.8-11.3-16.7-14.4-15.9-25.3.5-6.8 6.2-37.4 7.4-39.2.5-.9 1-.7 7.3 3.8M411.1 198c17.8 4.3 48.2 17.1 56 23.8 1.8 1.4 2.9 3.4 2.9 4.8 0 3.9 2.5 8.8 5.5 10.8 3.7 2.4 6.5 1.9 22.8-4.3 31-11.7 94.3-23.9 98.4-19 1.6 2 5 14.2 6.2 22.6 1.6 10.3 1.4 25.7-.5 35.3-6 31.6-21.1 56-44.3 71.4-7.9 5.3-8.9 6.3-10.1 10.6-1.9 6.7 3.9 14 11.2 14 4.4 0 6.6-1 12.1-5.3 2.2-1.7 4.2-2.6 4.7-2.1 1.8 1.9 4 22.9 4 38.3 0 16.9-2.7 45.3-6 63-8.5 46.3-8.5 46.5-12.2 56.1-.9 2.3-1.3 1.8-6.1-7.5-7.5-14.4-12.2-21-19.1-26.8-23.1-19.2-62.9-19.8-92.1-1.4-7.4 4.6-19 14.5-27.5 23.3-34.2 35.7-56.7 86.5-58.7 132.6-.3 7.6-.8 13.8-1 13.8-.3 0-2.3-1.3-4.6-2.9-11.7-8-22.1-11.1-37.5-11.2-15.5-.1-28.5 3.1-39.5 9.6-2.4 1.4-4.8 2.5-5.4 2.5s-1.2-6.3-1.6-15.9c-.8-19.9-2.8-30.7-9.4-51.5-3.8-12-12.3-30.7-19.6-42.8-13.9-23.4-37.5-47.5-58.7-60.2-16.5-9.8-42.4-16-57.7-13.7-22.7 3.4-43.4 18.1-56.7 40.3-1.7 2.8-3.6 5.3-4.3 5.5-1.9.7-10.2-39.5-14.4-69.7-2.9-21.4-3.6-53.3-1.5-69.4.9-6.6 1.8-12.1 2-12.3.2-.3 3.5 1.4 7.2 3.6 3.7 2.3 7.5 4.2 8.3 4.2 8.3.6 13.1-3.8 13.1-11.8 0-5.1-1.8-7.4-10.3-13.2-10.3-7-15.8-12.1-22.7-21.3-21.2-28.1-28.5-66.6-18.8-99.5 1.1-4 2.7-7.8 3.5-8.5 2.6-2.2 20.1-.5 40.3 3.8 31.1 6.7 45.2 10.7 66.5 18.9 8.1 3.1 11.9 2.8 15.9-1.1 1.4-1.5 2.8-4.3 3.1-6.3s1.1-4.7 1.8-6.1c1.7-3.6 24-14.5 41.2-20.2 14.3-4.7 30-8.6 31-7.6.3.3-.1 3.7-1 7.4-2.5 10.5-5.2 31.6-6.5 49.1-2.1 30.1-2.7 33.9-5.6 39.3-2.6 4.9-16.2 19-25.9 27-2.7 2.2-7.8 5.5-11.3 7.1-3.5 1.7-7.9 4.4-9.8 6.1-8.8 7.7-1.6 19.2 23.6 37.5 15.9 11.5 40.4 22.3 63.6 28.2 15.6 3.9 23.3 4.9 47.9 6.1 36.8 1.8 49.1-1 69.5-16.1 14.3-10.6 26.8-24.4 32.8-36.4 7.9-15.9 8.3-23.3 2.4-52-3.8-18.2-5.1-27.6-9.8-67-.9-7.2-2.4-17.9-3.5-23.9-1-6-1.9-11.5-1.9-12.2 0-1.6 1.7-1.3 18.1 2.6m-148.5 21.3c26.5 20.4 57.5 29.7 95.2 28.5 7.8-.2 14.2-.2 14.2 0 0 .4 2.9 14 5.6 26.2 1.3 6 5.4 33.4 5 33.8-1.3 1.3-21.1 3.4-33.6 3.5-35.3.3-67.1-12-88.7-34.6-8.3-8.8-13.3-17.2-13.3-22.6 0-1.8 1.1-9.2 2.5-16.4 3.9-20 4.8-23.7 5.5-23.7.4 0 3.8 2.4 7.6 5.3m-17 75.8c3.5 3.9 17.9 14.7 26 19.5 23.8 14 48.7 20.4 79.9 20.4 12.1 0 17.9-.5 23.8-1.9 4.4-1 8-1.4 8.3-.9 1.3 2.1-8.2 15.6-17 24.3-10 9.9-16.2 13.7-29.6 18.1-8.1 2.7-9.4 2.8-25.5 2.8-15.4-.1-17.9-.4-26-2.8-30.4-9.1-47.5-29.1-47.5-55.5 0-10 2.8-26.1 4.5-26.1.7 0 2 1 3.1 2.1m269.9 200.3c14 6.9 22.8 19.6 28.2 40.6 2.5 9.4 2.7 12.3 2.8 27.5 0 9.7-.6 20.2-1.3 24.5-6.4 36.1-21.7 66.7-46.2 92.3-20.1 21.1-38.9 31.5-58.5 32.5-8.3.4-9.6.2-17.4-2.8-7-2.7-9.5-4.4-15.9-10.4-20.9-19.8-28-44-22.6-76.7 2.1-12.9 2.4-13.3 4.3-6.4 7.4 25.8 29.9 41.7 53.2 37.6 19.1-3.5 34.2-18 39.4-38.1 2-7.6 1.6-24.4-.7-29.8l-1.4-3.2-2.3 5.4c-2.5 6.1-10 13.8-15.6 16.2-5.3 2.2-13.2 1.8-19.3-1.1-12.8-5.9-19.1-20.5-14.6-33.8 1.8-5.3 8.2-13 12.8-15.4l3.1-1.7-3.5-.8c-7.8-1.8-21.6 1.3-29.8 6.7-2.9 1.8-5.2 3.2-5.2 2.9s1.2-2.8 2.6-5.7c10.5-20.8 31.8-43.5 50.9-54.1 13.4-7.5 25.9-10.7 39.4-10.2 9.4.4 10.9.7 17.6 4m-368.7.7c14.7 3.9 30 13.6 44.8 28.3 15.2 15.2 23.5 26.9 31.8 44.8 6.5 14.1 9.1 22.5 7.5 24.6-8.8 11.6-20.9 15.3-32.4 9.8-10.1-4.8-15.7-14-15.6-25.6 0-3.7.5-7.8 1-9.1 1.7-4.5 7.1-10.9 11.3-13.6l4.3-2.7-3.5-.8c-6.9-1.6-20.5 1.1-28 5.5-28.6 16.9-33.5 59.4-9.6 83.3 22.4 22.3 57.2 17.3 73.6-10.6 2.2-3.6 4.2-7.7 4.5-9.3.8-3 2.5-3.7 2.5-1 .1 1 .5 6.5 1 12.3 4.7 50.7-25.3 85.1-66.5 76.5-30.9-6.5-65.6-42.4-84-87-3.1-7.6-7.6-25-9-35.4-3.1-21.6-1.1-43.2 5.2-58.6 3.6-8.6 6.6-13.4 12.8-20.3 11.8-13.1 27.4-16.7 48.3-11.1m180.9 165.4c13.9 4.4 21.1 10.3 47.2 38.3 19.2 20.8 30.2 28.1 55 36.8 1.7.6-5.6 6.1-29.4 21.9-29.1 19.4-45.3 27.3-61.3 29.7-12 1.9-53 1.4-61.7-.6-7.9-1.9-23.7-9.2-36.5-16.8-19.8-11.8-47-30.8-47-32.8 0-.4 2.9-1.5 6.5-2.5 19.2-5.2 42-20.7 56.1-38.2 12-14.9 23.8-26.3 31.9-30.8 13.8-7.6 26-9.2 39.2-5m276.3 63c17.9 3.2 32.4 4.7 40 4 10.1-.9 21.6-3 26.9-4.9 2.4-.9 4.6-1.4 4.9-1.2.2.3-1.5 4-3.8 8.4-9 16.8-26.9 35-42.2 42.8-17.5 8.8-39 11.1-58.8 6.1-14.4-3.7-19.3-4.2-23-2.7-4.1 1.7-6.4 6.2-5.5 10.8.9 4.8 12 16.3 20.3 20.9 3.4 1.9 6.2 3.8 6.2 4.3s-3.3 1.6-7.2 2.6c-22.3 5.3-53.2.8-71.8-10.5l-6.2-3.7-4.5-11.4c-2.4-6.3-4.7-12.2-4.9-13.1-.4-1.1 1.6-3.8 5.7-7.8 11.3-11.3 23.5-19.7 43.9-30.4 17.4-9.2 30.7-13.8 46.5-16.1 5.4-.8 24.8.3 33.5 1.9m-156.3 50.2c3.4 6.5 7.7 16.2 9.7 21.5 13.2 35.7 25.7 92.2 27.3 124l.6 11.7-2.9 1.2c-3.7 1.5-23 2.4-32.6 1.5l-7.4-.7.1-25.2c0-13.9-.4-27.3-.8-29.9-1.5-8.5-8.5-13.2-13.3-8.7-3.7 3.5-5.2 10.2-6.9 31-1.8 21.6-5.9 50.7-7.3 52.1-2.3 2.3-23.8 4-45.7 3.6-12.1-.2-22.5-.6-23.1-1-.8-.5-.9-2.1-.3-5 4.6-24.3 5.5-34.8 3.9-47.3-2.9-23.6-13.2-50.4-22.1-57.9-4.6-3.9-10.1-3.6-14.5.8-5.3 5.3-4.9 10.4 1.6 24.1 6 12.3 9.7 25 11 37.8 1 10.2.1 22-2 24.1-1.4 1.4-25.8 2.1-38.8 1.1l-9.4-.7.7-6.1c1.6-14.8 5.6-25.7 17-46.5 2.5-4.6 4.5-9.5 4.5-10.8 0-3.7-2.7-7.1-7.1-8.8-6.6-2.7-10.8.2-19.6 13.1-10.3 15.2-17.4 38.6-18.9 62-.6 10.2-.9 11.2-2.8 11.7-1.1.3-9.4.6-18.3.6-16.1 0-28.8-1.1-35.2-3.2l-3.4-1.1.7-13.1c2.5-51 9.5-80.9 30.2-128.8 1.6-3.7 3.3-6.8 3.7-6.8.5 0 4.1 2 8 4.3 28.4 17.2 42.3 21 75.7 20.8 21.3-.1 31.8-1.7 45.5-6.7 21.4-7.8 33.4-13.8 52.2-26 11.1-7.2 30.7-21.7 31.8-23.5 1.3-1.9 2.3-.6 8.2 10.8"/><path d="M42.4 241.4c-8.3 6.1 13.8 61.7 28 70.6 1.9 1.1 4 2 4.8 2 2.7 0 6.8-5.5 8.9-12 2.8-8.5 7.9-16.1 12.7-18.8 4.9-2.7 6.3-2.7 15.7-.1 8.7 2.3 13 1.6 16.5-2.8 3.4-4.3 2.4-12.5-1.9-16.1-.9-.7-5.6-3.3-10.6-5.7-26.4-12.7-67.2-22.1-74.1-17.1m512.4 1.6c-13.4 3-25 6.7-38.1 11.9-18 7.2-22.7 11-22.7 18.5 0 8.9 7.1 12.9 17.6 9.9 13.5-3.9 20-1.2 25.7 10.9 1.9 4 4.3 9.5 5.2 12.1.9 2.7 2.8 5.5 4.2 6.4 8.4 5.5 24.1-16.2 33.8-46.8 4.8-15.3 5.4-21 2.6-23.8-3-3-12.2-2.7-28.3.9M382.2 409.3c-6.7 7.1 2.5 26.5 16.8 35.7 2.7 1.8 5 3.6 5 4 0 2.1-8.2 3.4-21 3.4-11.2 0-14.6-.4-20-2.2-3.6-1.2-7.8-2.2-9.3-2.2-4.2 0-8.3 4.9-10.7 12.7-3 9.6-2.5 17.9 1.5 27.5.6 1.6 0 1.8-5.3 1.8-18.6 0-47.4-7.4-65-16.7-20.9-11-32-22.9-37.7-40.6-1.5-4.5-3.4-9-4.2-10-2.4-2.6-8.6-2.2-11.9.7-2.4 2-2.7 3-2.6 7.7.4 13.7 8.6 33.9 19 47.1 17.3 21.7 46.8 38 83.8 46.3 15.4 3.4 22.1 3.6 24.6.5 2.2-2.7 2.4-8.9.3-11.6-2.2-3-1.8-3.4 3.3-3.4 8.4 0 17.5-2 20-4.3 2-1.9 2.3-3 2-7.8l-.3-5.6 14-.6c14.7-.5 21.4-2.1 25.4-5.8 4.1-3.9 2-8.4-5.9-12.4l-3.5-1.8 2.5-1c10.9-4.2 19.9-9.5 25.7-15.1 5.7-5.6 6.3-6.6 6.3-10.2 0-5.3-2.3-7.3-12.1-10.8-9.7-3.4-15.7-7.6-24.4-16.7-7.1-7.5-11.2-10.9-13.1-10.9-.6 0-2 1-3.2 2.3M279 727.7c-6 1.7-8.7 5.9-7.5 11.3.8 3.6 5.5 7 9.6 7 1.5 0 5 1.6 7.9 3.6l5.3 3.6-.5-5.9c-.6-6.3-2.6-11.2-6.2-15.1-2.7-3-6.6-5.1-8.6-4.5m63 2.5c-1.8 1.3-4.2 4.1-5.4 6.2-1.9 3.9-3.6 15.6-2.1 15.6.4 0 2-1.1 3.6-2.5 2.7-2.2 8.5-4.5 11.5-4.5.6 0 2.3-.9 3.8-2.1 5.6-4.4 1.9-14.9-5.2-14.9-1.6 0-4.4 1-6.2 2.2"/></g></svg>